<?xml version="1.0" encoding="UTF-8" standalone="no"?>
<!-- Created with Inkscape (http://www.inkscape.org/) -->

<svg
   xmlns:dc="http://purl.org/dc/elements/1.1/"
   xmlns:cc="http://creativecommons.org/ns#"
   xmlns:rdf="http://www.w3.org/1999/02/22-rdf-syntax-ns#"
   xmlns:svg="http://www.w3.org/2000/svg"
   xmlns="http://www.w3.org/2000/svg"
   xmlns:sodipodi="http://sodipodi.sourceforge.net/DTD/sodipodi-0.dtd"
   xmlns:inkscape="http://www.inkscape.org/namespaces/inkscape"
   width="744.09448819"
   height="1052.3622047"
   id="svg2"
   version="1.1"
   inkscape:version="0.48.4 r9939"
   sodipodi:docname="training_set.svg">
  <defs
     id="defs4">
    <marker
       inkscape:stockid="Arrow1Lend"
       orient="auto"
       refY="0.0"
       refX="0.0"
       id="Arrow1Lend"
       style="overflow:visible;">
      <path
         id="path3915"
         d="M 0.0,0.0 L 5.0,-5.0 L -12.5,0.0 L 5.0,5.0 L 0.0,0.0 z "
         style="fill-rule:evenodd;stroke:#000000;stroke-width:1.0pt;"
         transform="scale(0.8) rotate(180) translate(12.5,0)" />
    </marker>
    <marker
       inkscape:stockid="Arrow1Lstart"
       orient="auto"
       refY="0.0"
       refX="0.0"
       id="Arrow1Lstart"
       style="overflow:visible">
      <path
         id="path3912"
         d="M 0.0,0.0 L 5.0,-5.0 L -12.5,0.0 L 5.0,5.0 L 0.0,0.0 z "
         style="fill-rule:evenodd;stroke:#000000;stroke-width:1.0pt"
         transform="scale(0.8) translate(12.5,0)" />
    </marker>
    <marker
       inkscape:stockid="Arrow1Lend"
       orient="auto"
       refY="0"
       refX="0"
       id="Arrow1Lend-8"
       style="overflow:visible">
      <path
         inkscape:connector-curvature="0"
         id="path3915-3"
         d="M 0,0 5,-5 -12.5,0 5,5 0,0 z"
         style="fill-rule:evenodd;stroke:#000000;stroke-width:1pt"
         transform="matrix(-0.8,0,0,-0.8,-10,0)" />
    </marker>
    <marker
       inkscape:stockid="Arrow1Lend"
       orient="auto"
       refY="0"
       refX="0"
       id="Arrow1Lend-82"
       style="overflow:visible">
      <path
         inkscape:connector-curvature="0"
         id="path3915-8"
         d="M 0,0 5,-5 -12.5,0 5,5 0,0 z"
         style="fill-rule:evenodd;stroke:#000000;stroke-width:1pt"
         transform="matrix(-0.8,0,0,-0.8,-10,0)" />
    </marker>
    <marker
       inkscape:stockid="Arrow1Lend"
       orient="auto"
       refY="0"
       refX="0"
       id="Arrow1Lend-2"
       style="overflow:visible">
      <path
         inkscape:connector-curvature="0"
         id="path3915-7"
         d="M 0,0 5,-5 -12.5,0 5,5 0,0 z"
         style="fill-rule:evenodd;stroke:#000000;stroke-width:1pt"
         transform="matrix(-0.8,0,0,-0.8,-10,0)" />
    </marker>
    <marker
       inkscape:stockid="Arrow1Lend"
       orient="auto"
       refY="0"
       refX="0"
       id="Arrow1Lend-6"
       style="overflow:visible">
      <path
         inkscape:connector-curvature="0"
         id="path3915-5"
         d="M 0,0 5,-5 -12.5,0 5,5 0,0 z"
         style="fill-rule:evenodd;stroke:#000000;stroke-width:1pt"
         transform="matrix(-0.8,0,0,-0.8,-10,0)" />
    </marker>
    <marker
       inkscape:stockid="Arrow1Lend"
       orient="auto"
       refY="0"
       refX="0"
       id="Arrow1Lend-7"
       style="overflow:visible">
      <path
         inkscape:connector-curvature="0"
         id="path3915-55"
         d="M 0,0 5,-5 -12.5,0 5,5 0,0 z"
         style="fill-rule:evenodd;stroke:#000000;stroke-width:1pt"
         transform="matrix(-0.8,0,0,-0.8,-10,0)" />
    </marker>
    <marker
       inkscape:stockid="Arrow1Lend"
       orient="auto"
       refY="0"
       refX="0"
       id="Arrow1Lend-3"
       style="overflow:visible">
      <path
         inkscape:connector-curvature="0"
         id="path3915-89"
         d="M 0,0 5,-5 -12.5,0 5,5 0,0 z"
         style="fill-rule:evenodd;stroke:#000000;stroke-width:1pt"
         transform="matrix(-0.8,0,0,-0.8,-10,0)" />
    </marker>
  </defs>
  <sodipodi:namedview
     id="base"
     pagecolor="#ffffff"
     bordercolor="#666666"
     borderopacity="1.0"
     inkscape:pageopacity="0.0"
     inkscape:pageshadow="2"
     inkscape:zoom="1.6705275"
     inkscape:cx="386.81289"
     inkscape:cy="502.04495"
     inkscape:document-units="px"
     inkscape:current-layer="layer1"
     showgrid="false"
     inkscape:window-width="1680"
     inkscape:window-height="1026"
     inkscape:window-x="0"
     inkscape:window-y="24"
     inkscape:window-maximized="1" />
  <metadata
     id="metadata7">
    <rdf:RDF>
      <cc:Work
         rdf:about="">
        <dc:format>image/svg+xml</dc:format>
        <dc:type
           rdf:resource="http://purl.org/dc/dcmitype/StillImage" />
        <dc:title></dc:title>
      </cc:Work>
    </rdf:RDF>
  </metadata>
  <g
     inkscape:label="Layer 1"
     inkscape:groupmode="layer"
     id="layer1">
    <path
       style="fill:none;stroke:#000000;stroke-width:1px;stroke-linecap:butt;stroke-linejoin:miter;stroke-opacity:1"
       d="m 251.41759,71.833596 c -3.59168,287.334384 -4.78891,286.137154 -4.78891,286.137154 l 277.75657,0 3.59168,0 -3.59168,-1.19722"
       id="path2987"
       inkscape:connector-curvature="0" />
    <path
       sodipodi:type="arc"
       style="fill:#000000"
       id="path2989"
       sodipodi:cx="134.68799"
       sodipodi:cy="436.3891"
       sodipodi:rx="12.570879"
       sodipodi:ry="12.570879"
       d="m 147.25887,436.3891 a 12.570879,12.570879 0 1 1 -25.14176,0 12.570879,12.570879 0 1 1 25.14176,0 z"
       transform="translate(-71.833596,-154.44223)" />
    <flowRoot
       xml:space="preserve"
       id="flowRoot2991"
       style="fill:black;stroke:none;stroke-opacity:1;stroke-width:1px;stroke-linejoin:miter;stroke-linecap:butt;fill-opacity:1;font-family:Sans;font-style:normal;font-weight:normal;font-size:40px;line-height:125%;letter-spacing:0px;word-spacing:0px"><flowRegion
         id="flowRegion2993"><rect
           id="rect2995"
           width="1820.9817"
           height="353.18185"
           x="37.114025"
           y="549.52704" /></flowRegion><flowPara
         id="flowPara2997"></flowPara></flowRoot>    <flowRoot
       xml:space="preserve"
       id="flowRoot2999"
       style="font-size:40px;font-style:normal;font-weight:normal;line-height:125%;letter-spacing:0px;word-spacing:0px;fill:#000000;fill-opacity:1;stroke:none;font-family:Sans"
       transform="matrix(2.3766583,0,0,2.6940349,-205.56624,-1134.0338)"><flowRegion
         id="flowRegion3001"><rect
           id="rect3003"
           width="119.72268"
           height="63.453053"
           x="101.76426"
           y="530.3714" /></flowRegion><flowPara
         id="flowPara3005"
         style="font-size:8.69436161px">sensor</flowPara><flowPara
         id="flowPara3007"
         style="font-size:8.69436161px" /></flowRoot>    <flowRoot
       xml:space="preserve"
       id="flowRoot3009"
       style="fill:black;stroke:none;stroke-opacity:1;stroke-width:1px;stroke-linejoin:miter;stroke-linecap:butt;fill-opacity:1;font-family:Sans;font-style:normal;font-weight:normal;font-size:13px;line-height:125%;letter-spacing:0px;word-spacing:0px"><flowRegion
         id="flowRegion3011"><rect
           id="rect3013"
           width="181.97844"
           height="67.044693"
           x="83.805862"
           y="526.77972"
           style="font-size:13px" /></flowRegion><flowPara
         id="flowPara3015"></flowPara></flowRoot>    <path
       sodipodi:type="arc"
       style="fill:#ff0000"
       id="path3017"
       sodipodi:cx="347.19571"
       sodipodi:cy="508.82132"
       sodipodi:rx="8.3805866"
       sodipodi:ry="8.3805866"
       d="m 355.5763,508.82132 a 8.3805866,8.3805866 0 1 1 -16.76118,0 8.3805866,8.3805866 0 1 1 16.76118,0 z"
       transform="translate(-99.070501,-165.21728)" />
    <path
       transform="translate(140.07553,-405.85984)"
       sodipodi:type="arc"
       style="fill:#ff0000"
       id="path3017-81"
       sodipodi:cx="347.19571"
       sodipodi:cy="508.82132"
       sodipodi:rx="8.3805866"
       sodipodi:ry="8.3805866"
       d="m 355.5763,508.82132 a 8.3805866,8.3805866 0 1 1 -16.76118,0 8.3805866,8.3805866 0 1 1 16.76118,0 z" />
    <path
       transform="translate(-96.97535,-336.42069)"
       sodipodi:type="arc"
       style="fill:#ff0000"
       id="path3017-0-6"
       sodipodi:cx="347.19571"
       sodipodi:cy="508.82132"
       sodipodi:rx="8.3805866"
       sodipodi:ry="8.3805866"
       d="m 355.5763,508.82132 a 8.3805866,8.3805866 0 1 1 -16.76118,0 8.3805866,8.3805866 0 1 1 16.76118,0 z" />
    <path
       style="fill:none;stroke:#000000;stroke-width:1px;stroke-linecap:butt;stroke-linejoin:miter;stroke-opacity:1"
       d="m 439.38217,410.86294 c 0,173.59785 0.59861,390.29586 0.59861,390.29586 l 219.09247,-1.19722"
       id="path3104"
       inkscape:connector-curvature="0"
       sodipodi:nodetypes="ccc" />
    <path
       transform="translate(92.785068,255.00925)"
       sodipodi:type="arc"
       style="fill:#ff0000"
       id="path3017-81-3"
       sodipodi:cx="347.19571"
       sodipodi:cy="508.82132"
       sodipodi:rx="8.3805866"
       sodipodi:ry="8.3805866"
       d="m 355.5763,508.82132 a 8.3805866,8.3805866 0 1 1 -16.76118,0 8.3805866,8.3805866 0 1 1 16.76118,0 z" />
    <path
       style="fill:none;stroke:#000000;stroke-width:1px;stroke-linecap:butt;stroke-linejoin:miter;stroke-opacity:1;marker-end:url(#Arrow1Lend)"
       d="m 249.73728,220.18677 c 70.89999,-0.21164 71.11163,-0.21164 71.11163,-0.21164"
       id="path3138"
       inkscape:connector-curvature="0" />
    <path
       style="fill:none;stroke:#000000;stroke-width:1px;stroke-linecap:butt;stroke-linejoin:miter;stroke-opacity:1;marker-end:url(#Arrow1Lend)"
       d="m 248.67907,262.30348 c 70.89999,-0.21164 71.11163,-0.21164 71.11163,-0.21164"
       id="path3138-6"
       inkscape:connector-curvature="0" />
    <path
       style="fill:none;stroke:#000000;stroke-width:1px;stroke-linecap:butt;stroke-linejoin:miter;stroke-opacity:1;marker-end:url(#Arrow1Lend)"
       d="m 247.83251,300.82228 c 70.89999,-0.21164 71.11163,-0.21164 71.11163,-0.21164"
       id="path3138-5"
       inkscape:connector-curvature="0" />
    <path
       style="fill:none;stroke:#000000;stroke-width:1.44411325px;stroke-linecap:butt;stroke-linejoin:miter;stroke-opacity:1;marker-end:url(#Arrow1Lend)"
       d="m 440.78759,522.82684 c 156.55004,-0.19989 157.01735,-0.19989 157.01735,-0.19989"
       id="path3138-0"
       inkscape:connector-curvature="0" />
    <path
       style="fill:none;stroke:#000000;stroke-width:1.44411325px;stroke-linecap:butt;stroke-linejoin:miter;stroke-opacity:1;marker-end:url(#Arrow1Lend)"
       d="m 440.78759,599.86444 c 156.55004,-0.19989 157.01735,-0.19989 157.01735,-0.19989"
       id="path3138-0-0"
       inkscape:connector-curvature="0" />
    <path
       style="fill:none;stroke:#000000;stroke-width:1.44411325px;stroke-linecap:butt;stroke-linejoin:miter;stroke-opacity:1;marker-end:url(#Arrow1Lend)"
       d="m 440.78759,682.82801 c 156.55004,-0.19989 157.01735,-0.19989 157.01735,-0.19989"
       id="path3138-0-1"
       inkscape:connector-curvature="0" />
    <path
       transform="translate(92.186451,14.366708)"
       sodipodi:type="arc"
       style="fill:#ff0000"
       id="path3017-1"
       sodipodi:cx="347.19571"
       sodipodi:cy="508.82132"
       sodipodi:rx="8.3805866"
       sodipodi:ry="8.3805866"
       d="m 355.5763,508.82132 a 8.3805866,8.3805866 0 1 1 -16.76118,0 8.3805866,8.3805866 0 1 1 16.76118,0 z" />
    <path
       transform="translate(92.485761,91.134462)"
       sodipodi:type="arc"
       style="fill:#ff0000"
       id="path3017-7"
       sodipodi:cx="347.19571"
       sodipodi:cy="508.82132"
       sodipodi:rx="8.3805866"
       sodipodi:ry="8.3805866"
       d="m 355.5763,508.82132 a 8.3805866,8.3805866 0 1 1 -16.76118,0 8.3805866,8.3805866 0 1 1 16.76118,0 z" />
    <path
       transform="translate(92.785064,173.59784)"
       sodipodi:type="arc"
       style="fill:#ff0000"
       id="path3017-81-8"
       sodipodi:cx="347.19571"
       sodipodi:cy="508.82132"
       sodipodi:rx="8.3805866"
       sodipodi:ry="8.3805866"
       d="m 355.5763,508.82132 a 8.3805866,8.3805866 0 1 1 -16.76118,0 8.3805866,8.3805866 0 1 1 16.76118,0 z" />
    <path
       transform="translate(-97.274652,-288.23232)"
       sodipodi:type="arc"
       style="fill:#ff0000"
       id="path3017-0"
       sodipodi:cx="347.19571"
       sodipodi:cy="508.82132"
       sodipodi:rx="8.3805866"
       sodipodi:ry="8.3805866"
       d="m 355.5763,508.82132 a 8.3805866,8.3805866 0 1 1 -16.76118,0 8.3805866,8.3805866 0 1 1 16.76118,0 z" />
    <path
       transform="translate(-98.77119,-208.91606)"
       sodipodi:type="arc"
       style="fill:#ff0000"
       id="path3017-8"
       sodipodi:cx="347.19571"
       sodipodi:cy="508.82132"
       sodipodi:rx="8.3805866"
       sodipodi:ry="8.3805866"
       d="m 355.5763,508.82132 a 8.3805866,8.3805866 0 1 1 -16.76118,0 8.3805866,8.3805866 0 1 1 16.76118,0 z" />
    <path
       transform="translate(-97.873271,-246.92801)"
       sodipodi:type="arc"
       style="fill:#ff0000"
       id="path3017-6"
       sodipodi:cx="347.19571"
       sodipodi:cy="508.82132"
       sodipodi:rx="8.3805866"
       sodipodi:ry="8.3805866"
       d="m 355.5763,508.82132 a 8.3805866,8.3805866 0 1 1 -16.76118,0 8.3805866,8.3805866 0 1 1 16.76118,0 z" />
    <path
       transform="translate(-24.440434,-288.80966)"
       sodipodi:type="arc"
       style="fill:#0000ff"
       id="path3017-81-1"
       sodipodi:cx="347.19571"
       sodipodi:cy="508.82132"
       sodipodi:rx="8.3805866"
       sodipodi:ry="8.3805866"
       d="m 355.5763,508.82132 a 8.3805866,8.3805866 0 1 1 -16.76118,0 8.3805866,8.3805866 0 1 1 16.76118,0 z" />
    <path
       transform="translate(-23.448619,-246.62869)"
       sodipodi:type="arc"
       style="fill:#0000ff"
       id="path3017-81-7"
       sodipodi:cx="347.19571"
       sodipodi:cy="508.82132"
       sodipodi:rx="8.3805866"
       sodipodi:ry="8.3805866"
       d="m 355.5763,508.82132 a 8.3805866,8.3805866 0 1 1 -16.76118,0 8.3805866,8.3805866 0 1 1 16.76118,0 z" />
    <path
       transform="translate(-23.017151,-208.02695)"
       sodipodi:type="arc"
       style="fill:#0000ff"
       id="path3017-81-4"
       sodipodi:cx="347.19571"
       sodipodi:cy="508.82132"
       sodipodi:rx="8.3805866"
       sodipodi:ry="8.3805866"
       d="m 355.5763,508.82132 a 8.3805866,8.3805866 0 1 1 -16.76118,0 8.3805866,8.3805866 0 1 1 16.76118,0 z" />
    <path
       transform="translate(252.12924,13.810634)"
       sodipodi:type="arc"
       style="fill:#0000ff"
       id="path3017-81-13"
       sodipodi:cx="347.19571"
       sodipodi:cy="508.82132"
       sodipodi:rx="8.3805866"
       sodipodi:ry="8.3805866"
       d="m 355.5763,508.82132 a 8.3805866,8.3805866 0 1 1 -16.76118,0 8.3805866,8.3805866 0 1 1 16.76118,0 z" />
    <path
       transform="translate(251.69349,91.074291)"
       sodipodi:type="arc"
       style="fill:#0000ff"
       id="path3017-81-19"
       sodipodi:cx="347.19571"
       sodipodi:cy="508.82132"
       sodipodi:rx="8.3805866"
       sodipodi:ry="8.3805866"
       d="m 355.5763,508.82132 a 8.3805866,8.3805866 0 1 1 -16.76118,0 8.3805866,8.3805866 0 1 1 16.76118,0 z" />
    <path
       transform="translate(253.43433,173.24719)"
       sodipodi:type="arc"
       style="fill:#0000ff"
       id="path3017-81-6"
       sodipodi:cx="347.19571"
       sodipodi:cy="508.82132"
       sodipodi:rx="8.3805866"
       sodipodi:ry="8.3805866"
       d="m 355.5763,508.82132 a 8.3805866,8.3805866 0 1 1 -16.76118,0 8.3805866,8.3805866 0 1 1 16.76118,0 z" />
    <path
       transform="translate(139.58764,-355.58081)"
       sodipodi:type="arc"
       style="fill:#0000ff"
       id="path3017-81-12"
       sodipodi:cx="347.19571"
       sodipodi:cy="508.82132"
       sodipodi:rx="8.3805866"
       sodipodi:ry="8.3805866"
       d="m 355.5763,508.82132 a 8.3805866,8.3805866 0 1 1 -16.76118,0 8.3805866,8.3805866 0 1 1 16.76118,0 z" />
    <flowRoot
       xml:space="preserve"
       id="flowRoot4716"
       style="font-size:40px;font-style:normal;font-weight:normal;line-height:125%;letter-spacing:0px;word-spacing:0px;fill:#000000;fill-opacity:1;stroke:none;font-family:Sans"
       transform="translate(226.73863,51.688294)"><flowRegion
         id="flowRegion4718"><rect
           id="rect4720"
           width="236.3405"
           height="112.97417"
           x="280.21368"
           y="39.021423" /></flowRegion><flowPara
         id="flowPara4722"
         style="font-size:22px">positive example</flowPara></flowRoot>    <flowRoot
       xml:space="preserve"
       id="flowRoot4716-2"
       style="font-size:40px;font-style:normal;font-weight:normal;line-height:125%;letter-spacing:0px;word-spacing:0px;fill:#000000;fill-opacity:1;stroke:none;font-family:Sans"
       transform="translate(225.88723,100.63948)"><flowRegion
         id="flowRegion4718-5"><rect
           id="rect4720-5"
           width="233.34743"
           height="115.96723"
           x="280.21368"
           y="39.021423" /></flowRegion><flowPara
         id="flowPara4722-1"
         style="font-size:22px">negative example</flowPara><flowPara
         style="font-size:22px"
         id="flowPara4751" /></flowRoot>    <path
       style="fill:none;stroke:#000000;stroke-width:0.95941085px;stroke-linecap:butt;stroke-linejoin:miter;stroke-opacity:1;marker-end:url(#Arrow1Lend)"
       d="m 430.07028,201.34234 c 66.31488,-0.20828 66.51283,-0.20828 66.51283,-0.20828"
       id="path3138-0-3"
       inkscape:connector-curvature="0" />
    <flowRoot
       xml:space="preserve"
       id="flowRoot4716-2-3"
       style="font-size:40px;font-style:normal;font-weight:normal;line-height:125%;letter-spacing:0px;word-spacing:0px;fill:#000000;fill-opacity:1;stroke:none;font-family:Sans"
       transform="translate(226.29871,147.92992)"><flowRegion
         id="flowRegion4718-5-7"><rect
           id="rect4720-5-0"
           width="238.13634"
           height="112.37556"
           x="280.21368"
           y="39.021423" /></flowRegion><flowPara
         style="font-size:22px"
         id="flowPara4751-5">normal direction</flowPara><flowPara
         style="font-size:22px"
         id="flowPara4811" /></flowRoot>    <path
       transform="translate(92.186458,-57.466891)"
       sodipodi:type="arc"
       style="fill:#ff0000"
       id="path3017-81-0"
       sodipodi:cx="347.19571"
       sodipodi:cy="508.82132"
       sodipodi:rx="8.3805866"
       sodipodi:ry="8.3805866"
       d="m 355.5763,508.82132 a 8.3805866,8.3805866 0 1 1 -16.76118,0 8.3805866,8.3805866 0 1 1 16.76118,0 z" />
  </g>
</svg>
